<svg id="Layer_12" data-name="Layer 12" xmlns="http://www.w3.org/2000/svg" xmlns:xlink="http://www.w3.org/1999/xlink" viewBox="0 0 160.79 149.38"><defs><style>.cls-1{fill:url(#linear-gradient);}.cls-2{fill:#035a72;}.cls-3{fill:#fff;}</style><linearGradient id="linear-gradient" x1="39.69" y1="306.73" x2="183.87" y2="347.83" gradientUnits="userSpaceOnUse"><stop offset="0" stop-color="#072332"/><stop offset="0.13" stop-color="#072635"/><stop offset="0.23" stop-color="#062e3f"/><stop offset="0.32" stop-color="#053d50"/><stop offset="0.41" stop-color="#045168"/><stop offset="0.44" stop-color="#035a72"/></linearGradient></defs><path class="cls-1" d="M132.19,375.83H50.57c-29.7,0-5.9-24.3-5.9-54h0a54.16,54.16,0,0,1,54-54h33.52a54.16,54.16,0,0,1,54,54h0A54.16,54.16,0,0,1,132.19,375.83Z" transform="translate(-25.4 -267.83)"/><path class="cls-2" d="M33,415.53l103.12-147-3.5-.66H29.81a4.4,4.4,0,0,0-4.41,4.4V413A4.2,4.2,0,0,0,33,415.53Z" transform="translate(-25.4 -267.83)"/><circle class="cls-3" cx="106.17" cy="54.9" r="47.22"/><circle class="cls-2" cx="106.17" cy="54.9" r="35.41"/><circle class="cls-3" cx="91.55" cy="35.52" r="4.4"/><rect class="cls-3" x="7.13" y="7.52" width="26.38" height="16.84" rx="3.11"/></svg>