<svg xmlns="http://www.w3.org/2000/svg" xmlns:xlink="http://www.w3.org/1999/xlink" viewBox="0 0 900 153.61" width="900" height="153.61"><defs><style>.cls-1{fill:url(#linear-gradient);}.cls-2{fill:#035a71;}.cls-3{fill:#fff;}.cls-4{font-size:131px;fill:#231f20;font-family:Lato-Italic, Lato;font-style:italic;}.cls-5{letter-spacing:-0.02em;}</style><linearGradient id="linear-gradient" x1="40.03" y1="70.23" x2="184.21" y2="111.33" gradientUnits="userSpaceOnUse"><stop offset="0" stop-color="#072332"/><stop offset="0.13" stop-color="#072635"/><stop offset="0.23" stop-color="#062f3f"/><stop offset="0.32" stop-color="#053d50"/><stop offset="0.41" stop-color="#045268"/><stop offset="0.44" stop-color="#035a71"/></linearGradient></defs><g id="Main"><path class="cls-1" d="M132.53,139.33H50.9c-29.7,0-5.89-24.3-5.89-54h0a54.16,54.16,0,0,1,54-54h33.52a54.16,54.16,0,0,1,54,54h0A54.16,54.16,0,0,1,132.53,139.33Z" transform="translate(-25.74 -27.1)"/><path class="cls-2" d="M33.29,179,136.4,32l-3.5-.66H30.14a4.4,4.4,0,0,0-4.4,4.4V176.5A4.2,4.2,0,0,0,33.29,179Z" transform="translate(-25.74 -27.1)"/><circle class="cls-3" cx="106.17" cy="59.13" r="47.22"/><circle class="cls-2" cx="106.17" cy="59.13" r="35.41"/><circle class="cls-3" cx="91.55" cy="39.75" r="4.4"/><rect class="cls-3" x="7.13" y="11.75" width="26.38" height="16.84" rx="3.11"/></g><g id="Upper"><text class="cls-4" transform="translate(163.35 112.43)">hotog<tspan class="cls-5" x="307.45" y="0">r</tspan><tspan x="350.95" y="0">ammar</tspan></text></g></svg>
